<?xml version="1.0" encoding="UTF-8" standalone="no"?>
<!-- Created with Inkscape (http://www.inkscape.org/) -->

<svg
   width="32"
   height="32"
   viewBox="0 0 32 32"
   version="1.1"
   id="svg1"
   inkscape:version="1.3 (0e150ed6c4, 2023-07-21)"
   sodipodi:docname="gocalcico.svg"
   xmlns:inkscape="http://www.inkscape.org/namespaces/inkscape"
   xmlns:sodipodi="http://sodipodi.sourceforge.net/DTD/sodipodi-0.dtd"
   xmlns="http://www.w3.org/2000/svg"
   xmlns:svg="http://www.w3.org/2000/svg">
  <sodipodi:namedview
     id="namedview1"
     pagecolor="#ffffff"
     bordercolor="#000000"
     borderopacity="0.25"
     inkscape:showpageshadow="2"
     inkscape:pageopacity="0.0"
     inkscape:pagecheckerboard="0"
     inkscape:deskcolor="#d1d1d1"
     inkscape:document-units="px"
     showguides="true"
     inkscape:zoom="26.46875"
     inkscape:cx="16"
     inkscape:cy="16"
     inkscape:window-width="1920"
     inkscape:window-height="1044"
     inkscape:window-x="0"
     inkscape:window-y="0"
     inkscape:window-maximized="1"
     inkscape:current-layer="layer2">
    <sodipodi:guide
       position="15.263282,32.302243"
       orientation="0,-1"
       id="guide11"
       inkscape:locked="false" />
  </sodipodi:namedview>
  <defs
     id="defs1">
    <inkscape:perspective
       sodipodi:type="inkscape:persp3d"
       inkscape:vp_x="29.214043 : 0.16019284 : 1"
       inkscape:vp_y="0 : 1000 : 0"
       inkscape:vp_z="23.875449 : 10.900492 : 1"
       inkscape:persp3d-origin="7.8754488 : 5.5671591 : 1"
       id="perspective133" />
    <inkscape:perspective
       sodipodi:type="inkscape:persp3d"
       inkscape:vp_x="-5.2998787 : 7.1228273 : 1"
       inkscape:vp_y="0 : -1036.0145 : 0"
       inkscape:vp_z="23.64295 : 7.1228273 : 1"
       inkscape:persp3d-origin="9.1715361 : 12.648237 : 1"
       id="perspective89" />
    <inkscape:perspective
       sodipodi:type="inkscape:persp3d"
       inkscape:vp_x="-12.996753 : 12.69875 : 1"
       inkscape:vp_y="0 : 1266.7404 : 0"
       inkscape:vp_z="40.094449 : 12.69875 : 1"
       inkscape:persp3d-origin="13.548848 : 5.9428013 : 1"
       id="perspective61" />
    <inkscape:perspective
       sodipodi:type="inkscape:persp3d"
       inkscape:vp_x="-13.621621 : 16.283744 : 1"
       inkscape:vp_y="0 : 1000 : 0"
       inkscape:vp_z="41.534969 : 16.283744 : 1"
       inkscape:persp3d-origin="13.956673 : 10.950411 : 1"
       id="perspective50" />
    <inkscape:perspective
       sodipodi:type="inkscape:persp3d"
       inkscape:vp_x="-0.62495849 : 15.624433 : 1"
       inkscape:vp_y="0 : 1000 : 0"
       inkscape:vp_z="31.375042 : 15.624433 : 1"
       inkscape:persp3d-origin="15.375042 : 10.2911 : 1"
       id="perspective13" />
  </defs>
  <g
     inkscape:groupmode="layer"
     id="layer2"
     inkscape:label="Ebene 2"
     style="fill:#ffffff">
    <rect
       style="fill:#ffffff"
       id="rect1"
       width="32.103096"
       height="32.043365"
       x="-0.10990883"
       y="-0.01667814" />
  </g>
  <g
     inkscape:label="Ebene 1"
     inkscape:groupmode="layer"
     id="layer1"
     style="display:inline">
    <path
       style="fill:#000000"
       d="M 14.185782,0.06453037 C 15.238546,31.680926 14.238292,31.559574 15.258377,31.544844 16.278467,31.530114 17.1763,62.985769 16.327074,31.505454 15.477847,0.02513005 16.859368,-0.0032335 15.477847,0.02513005"
       id="path11" />
    <path
       style="fill:#000000;stroke-width:0.837942"
       d="M -0.07050852,14.52096 C 22.281755,14.313939 22.289672,13.540525 22.281755,14.313939 c -0.008,0.773415 22.302606,0.523039 -0.008,0.773415 C -0.03676836,15.33773 0.02125852,16.014938 -0.03676836,15.33773"
       id="path12" />
    <ellipse
       style="fill:#000000"
       id="path19"
       cx="23.903631"
       cy="20.242933"
       rx="1.7426776"
       ry="1.7424273" />
    <ellipse
       style="fill:#000000"
       id="path20"
       cx="23.985769"
       cy="28.105854"
       rx="1.7898269"
       ry="1.661911" />
    <rect
       style="fill:#000000"
       id="rect32"
       width="9.768899"
       height="2.0977116"
       x="19.128563"
       y="23.246752" />
    <g
       sodipodi:type="inkscape:box3d"
       id="g33"
       style="fill:#000000"
       inkscape:perspectiveID="#perspective13"
       inkscape:corner0="1.5087033 : 0.036715459 : 0 : 1"
       inkscape:corner7="1.1444755 : 0.020039492 : 0.25 : 1">
      <path
         sodipodi:type="inkscape:box3dside"
         id="path38"
         style="fill:#e9e9ff;fill-rule:evenodd;stroke:none;stroke-linejoin:round"
         inkscape:box3dsidetype="11"
         d="M 8.0747812,4.999887 9.3981136,3.2695127 v 6.9643503 l -1.3233324,0.810881 z"
         points="9.3981136,3.2695127 9.3981136,10.233863 8.0747812,11.044744 8.0747812,4.999887 " />
      <path
         sodipodi:type="inkscape:box3dside"
         id="path33"
         style="fill:#353564;fill-rule:evenodd;stroke:none;stroke-linejoin:round"
         inkscape:box3dsidetype="6"
         d="m 5.7528386,3.8662655 v 6.6472455 l 2.3219426,0.531233 V 4.999887 Z"
         points="5.7528386,10.513511 8.0747812,11.044744 8.0747812,4.999887 5.7528386,3.8662655 " />
      <path
         sodipodi:type="inkscape:box3dside"
         id="path34"
         style="fill:#4d4d9f;fill-rule:evenodd;stroke:none;stroke-linejoin:round"
         inkscape:box3dsidetype="5"
         d="M 5.7528386,3.8662655 6.8360736,1.7416269 9.3981136,3.2695127 8.0747812,4.999887 Z"
         points="6.8360736,1.7416269 9.3981136,3.2695127 8.0747812,4.999887 5.7528386,3.8662655 " />
      <path
         sodipodi:type="inkscape:box3dside"
         id="path37"
         style="fill:#afafde;fill-rule:evenodd;stroke:none;stroke-linejoin:round"
         inkscape:box3dsidetype="13"
         d="m 5.7528386,10.513511 1.083235,-0.995639 2.56204,0.715991 -1.3233324,0.810881 z"
         points="6.8360736,9.517872 9.3981136,10.233863 8.0747812,11.044744 5.7528386,10.513511 " />
      <path
         sodipodi:type="inkscape:box3dside"
         id="path36"
         style="fill:#d7d7ff;fill-rule:evenodd;stroke:none;stroke-linejoin:round"
         inkscape:box3dsidetype="14"
         d="M 6.8360736,1.7416269 V 9.517872 l 2.56204,0.715991 V 3.2695127 Z"
         points="6.8360736,9.517872 9.3981136,10.233863 9.3981136,3.2695127 6.8360736,1.7416269 " />
      <path
         sodipodi:type="inkscape:box3dside"
         id="path35"
         style="fill:#8686bf;fill-rule:evenodd;stroke:none;stroke-linejoin:round"
         inkscape:box3dsidetype="3"
         d="M 5.7528386,3.8662655 6.8360736,1.7416269 V 9.517872 l -1.083235,0.995639 z"
         points="6.8360736,1.7416269 6.8360736,9.517872 5.7528386,10.513511 5.7528386,3.8662655 " />
    </g>
    <g
       sodipodi:type="inkscape:box3d"
       id="g38"
       style="fill:#000000"
       inkscape:perspectiveID="#perspective50"
       inkscape:corner0="0.64413024 : 0.022551615 : 0 : 1"
       inkscape:corner7="0.46331594 : 0.02021985 : 0.36538325 : 1">
      <path
         sodipodi:type="inkscape:box3dside"
         id="path44"
         style="fill:#e9e9ff;fill-rule:evenodd;stroke:none;stroke-width:1.31287;stroke-linejoin:round"
         inkscape:box3dsidetype="11"
         d="M 10.131187,7.1478726 12.479768,6.3006659 V 7.5757608 L 10.131187,8.3082356 Z"
         points="12.479768,6.3006659 12.479768,7.5757608 10.131187,8.3082356 10.131187,7.1478726 " />
      <path
         sodipodi:type="inkscape:box3dside"
         id="path39"
         style="fill:#353564;fill-rule:evenodd;stroke:none;stroke-width:1.07703;stroke-linejoin:round"
         inkscape:box3dsidetype="6"
         d="M 3.1521682,5.2436781 V 6.6619143 L 10.131187,8.3082356 V 7.1478726 Z"
         points="3.1521682,6.6619143 10.131187,8.3082356 10.131187,7.1478726 3.1521682,5.2436781 " />
      <path
         sodipodi:type="inkscape:box3dside"
         id="path40"
         style="fill:#4d4d9f;fill-rule:evenodd;stroke:none;stroke-width:1.07703;stroke-linejoin:round"
         inkscape:box3dsidetype="5"
         d="M 3.1521682,5.2436781 5.2248176,3.9496364 12.479768,6.3006659 10.131187,7.1478726 Z"
         points="5.2248176,3.9496364 12.479768,6.3006659 10.131187,7.1478726 3.1521682,5.2436781 " />
      <path
         sodipodi:type="inkscape:box3dside"
         id="path43"
         style="fill:#afafde;fill-rule:evenodd;stroke:none;stroke-width:1.07703;stroke-linejoin:round"
         inkscape:box3dsidetype="13"
         d="M 3.1521682,6.6619143 5.2248176,5.5431166 12.479768,7.5757608 10.131187,8.3082356 Z"
         points="5.2248176,5.5431166 12.479768,7.5757608 10.131187,8.3082356 3.1521682,6.6619143 " />
      <path
         sodipodi:type="inkscape:box3dside"
         id="path42"
         style="fill:#d7d7ff;fill-rule:evenodd;stroke:none;stroke-width:1.07703;stroke-linejoin:round"
         inkscape:box3dsidetype="14"
         d="M 5.2248176,3.9496364 V 5.5431166 L 12.479768,7.5757608 V 6.3006659 Z"
         points="5.2248176,5.5431166 12.479768,7.5757608 12.479768,6.3006659 5.2248176,3.9496364 " />
      <path
         sodipodi:type="inkscape:box3dside"
         id="path41"
         style="fill:#8686bf;fill-rule:evenodd;stroke:none;stroke-width:1.07703;stroke-linejoin:round"
         inkscape:box3dsidetype="3"
         d="M 3.1521682,5.2436781 5.2248176,3.9496364 V 5.5431166 L 3.1521682,6.6619143 Z"
         points="5.2248176,3.9496364 5.2248176,5.5431166 3.1521682,6.6619143 3.1521682,5.2436781 " />
    </g>
    <g
       sodipodi:type="inkscape:box3d"
       id="g50"
       style="fill:#000000"
       inkscape:perspectiveID="#perspective61"
       inkscape:corner0="-0.22278759 : 0.013947334 : 0 : 1"
       inkscape:corner7="-0.26367702 : 0.013127664 : 0.25 : 1">
      <path
         sodipodi:type="inkscape:box3dside"
         id="path55"
         style="fill:#e9e9ff;fill-rule:evenodd;stroke:none;stroke-width:1.44971;stroke-linejoin:round"
         inkscape:box3dsidetype="11"
         d="m 25.766799,8.6786148 1.606998,-0.4403766 v 1.052707 l -1.606998,0.3984723 z"
         points="27.373797,8.2382382 27.373797,9.2909452 25.766799,9.6894175 25.766799,8.6786148 " />
      <path
         sodipodi:type="inkscape:box3dside"
         id="path50"
         style="fill:#353564;fill-rule:evenodd;stroke:none;stroke-width:1.44971;stroke-linejoin:round"
         inkscape:box3dsidetype="6"
         d="m 21.158133,5.2617125 v 1.33594 l 4.608666,3.091765 V 8.6786148 Z"
         points="21.158133,6.5976525 25.766799,9.6894175 25.766799,8.6786148 21.158133,5.2617125 " />
      <path
         sodipodi:type="inkscape:box3dside"
         id="path51"
         style="fill:#4d4d9f;fill-rule:evenodd;stroke:none;stroke-width:1.44971;stroke-linejoin:round"
         inkscape:box3dsidetype="5"
         d="M 21.158133,5.2617125 23.054819,4.48207 27.373797,8.2382382 25.766799,8.6786148 Z"
         points="23.054819,4.48207 27.373797,8.2382382 25.766799,8.6786148 21.158133,5.2617125 " />
      <path
         sodipodi:type="inkscape:box3dside"
         id="path54"
         style="fill:#afafde;fill-rule:evenodd;stroke:none;stroke-width:1.44971;stroke-linejoin:round"
         inkscape:box3dsidetype="13"
         d="m 21.158133,6.5976525 1.896686,-0.7054552 4.318978,3.3987479 -1.606998,0.3984723 z"
         points="23.054819,5.8921973 27.373797,9.2909452 25.766799,9.6894175 21.158133,6.5976525 " />
      <path
         sodipodi:type="inkscape:box3dside"
         id="path53"
         style="fill:#d7d7ff;fill-rule:evenodd;stroke:none;stroke-width:1.44971;stroke-linejoin:round"
         inkscape:box3dsidetype="14"
         d="m 23.054819,4.48207 v 1.4101273 l 4.318978,3.3987479 v -1.052707 z"
         points="23.054819,5.8921973 27.373797,9.2909452 27.373797,8.2382382 23.054819,4.48207 " />
      <path
         sodipodi:type="inkscape:box3dside"
         id="path52"
         style="fill:#8686bf;fill-rule:evenodd;stroke:none;stroke-width:1.44971;stroke-linejoin:round"
         inkscape:box3dsidetype="3"
         d="M 21.158133,5.2617125 23.054819,4.48207 v 1.4101273 l -1.896686,0.7054552 z"
         points="23.054819,4.48207 23.054819,5.8921973 21.158133,6.5976525 21.158133,5.2617125 " />
    </g>
    <path
       sodipodi:type="star"
       style="fill:#000000"
       id="path145"
       inkscape:flatsided="false"
       sodipodi:sides="5"
       sodipodi:cx="6.7648339"
       sodipodi:cy="20.419367"
       sodipodi:r1="3.5741854"
       sodipodi:r2="1.7870927"
       sodipodi:arg1="2.173784"
       sodipodi:arg2="2.8021026"
       inkscape:rounded="0"
       inkscape:randomized="0"
       d="M 4.7378927,23.363227 5.0797403,21.01448 3.3386976,19.401334 5.6781251,19.000648 6.6743064,16.846328 7.7783046,18.947437 10.135021,19.22914 8.477902,20.928383 8.9382517,23.256805 6.8100976,22.205886 Z"
       inkscape:transform-center-x="0.037863273"
       inkscape:transform-center-y="-0.43870434"
       transform="matrix(1.3534883,0,0,1.3945294,-2.0167726,-3.8833755)" />
    <path
       style="fill:#ff6600;stroke-width:0.0377804"
       d="M 11.428571,7.2734169 C 10.25186,6.9345887 5.2802589,5.5348288 5.2535363,5.5348288 c -0.011523,0 -0.020951,-0.3497708 -0.020951,-0.7772684 0,-0.6504432 0.00872,-0.7752753 0.053418,-0.7650532 0.02938,0.00672 1.652952,0.5307514 3.6079382,1.1645176 l 3.5545205,1.1523022 9e-5,0.6139316 c 8.2e-5,0.5610892 -0.0056,0.6135819 -0.06602,0.6098694 -0.03636,-0.00223 -0.465644,-0.1191042 -0.953956,-0.2597111 z"
       id="path1" />
    <path
       style="fill:#ff6600;stroke-width:0.0377804"
       d="M 9.0106257,10.121267 C 8.2638533,9.9047078 7.34938,9.6400732 7.1121606,9.5718805 L 6.8571429,9.4985713 V 8.5367709 c 0,-0.6115013 0.013664,-0.9618004 0.037516,-0.9618004 0.020634,0 0.5795599,0.1275088 1.2420575,0.283353 0.6624977,0.1558442 1.2151549,0.283353 1.2281271,0.283353 0.012972,0 0.023586,0.4675325 0.023586,1.038961 0,0.5714286 -0.012751,1.0377905 -0.028335,1.0363585 -0.015585,-0.0014 -0.1728454,-0.04451 -0.3494688,-0.09573 z"
       id="path2" />
    <path
       style="fill:#ff6600;stroke-width:0.0377804"
       d="m 8.094491,4.8608175 -1.2372682,-0.4027301 -4e-5,-1.3349075 c -2.2e-5,-0.7341992 0.014016,-1.3292405 0.031196,-1.3223141 0.01718,0.00693 0.5866551,0.3441165 1.2655008,0.7493113 L 9.3881444,3.2868949 9.388287,4.2786305 C 9.3883656,4.824085 9.3756789,5.2688318 9.3600945,5.2669568 9.34451,5.2650817 8.7749885,5.082319 8.094491,4.8608175 Z"
       id="path3" />
    <path
       style="fill:#ff6600;stroke-width:0.0377804"
       d="M 26.861865,8.8774729 C 26.591736,8.6605174 25.626919,7.8951861 24.717828,7.1767368 L 23.064935,5.8704654 V 5.2083535 c 0,-0.3641615 0.01403,-0.6564448 0.03118,-0.6495184 0.01715,0.00693 0.986215,0.8435276 2.153483,1.8591137 l 2.122305,1.8465203 v 0.5053096 c 0,0.2779206 -0.0043,0.5046007 -0.0094,0.5037344 -0.0052,-8.667e-4 -0.230461,-0.1790844 -0.500591,-0.3960402 z"
       id="path4" />
    <path
       style="fill:#ff6600;stroke-width:0.0377804"
       d="m 19.135773,24.292798 v -1.038961 h 4.873672 4.873672 v 1.038961 1.038961 h -4.873672 -4.873672 z"
       id="path5" />
    <path
       style="fill:#ff6600;stroke-width:0.0377804"
       d="m 23.48999,21.910927 c -0.586046,-0.157808 -1.053998,-0.60066 -1.223144,-1.157536 -0.117133,-0.385636 -0.08959,-0.862249 0.06981,-1.208081 0.210439,-0.456567 0.646827,-0.829335 1.121195,-0.957741 0.972466,-0.263234 1.961075,0.372613 2.14052,1.376726 0.211116,1.181328 -0.954351,2.257385 -2.108378,1.946632 z"
       id="path6" />
    <path
       style="fill:#ff6600;stroke-width:0.0377804"
       d="m 23.547491,29.695839 c -0.500968,-0.127275 -0.946103,-0.476632 -1.1662,-0.915273 -0.122993,-0.245119 -0.128635,-0.27459 -0.128635,-0.671947 0,-0.372901 0.01051,-0.438018 0.102346,-0.634002 0.05629,-0.120129 0.197219,-0.31788 0.313174,-0.439447 0.86151,-0.903203 2.375716,-0.693391 2.918254,0.404361 0.135699,0.274569 0.142023,0.304275 0.142023,0.667128 0,0.347131 -0.0101,0.400865 -0.11751,0.625336 -0.290604,0.607301 -0.840789,0.96432 -1.544827,1.002448 -0.192547,0.01043 -0.380777,-0.0036 -0.518625,-0.0386 z"
       id="path7" />
    <path
       style="fill:#ff6600;stroke-width:0.0377804"
       d="m 5.7615112,8.8830025 c 0,-1.056189 0.012808,-1.5724948 0.03901,-1.5724948 0.021456,0 0.2594721,0.05241 0.5289257,0.1164676 L 6.8193625,7.5434429 6.8159,8.532052 6.8124375,9.5206612 6.3598522,9.9362456 C 6.1109303,10.164817 5.8744719,10.375155 5.8343891,10.403664 c -0.071646,0.05096 -0.072878,0.02526 -0.072878,-1.5206615 z"
       id="path8" />
    <path
       style="fill:#ff6600;stroke-width:0.0377804"
       d="M 6.7060213,7.4832343 C 4.846281,7.0421866 3.3016519,6.6735435 3.2735121,6.6640274 3.2453723,6.6545114 3.6760713,6.4028544 4.2306209,6.1047898 l 1.008272,-0.5419357 0.8752407,0.2467284 c 0.4813824,0.1357006 2.0738239,0.5820347 3.538759,0.9918536 1.4649354,0.4098188 2.6754944,0.7558431 2.6901324,0.768943 0.02273,0.020337 -2.184188,0.7293103 -2.236848,0.7185895 -0.01035,-0.00211 -1.5404155,-0.3646867 -3.4001557,-0.8057343 z"
       id="path9" />
    <path
       style="fill:#ff6600;stroke-width:0.0377804"
       d="M 6.2715466,4.27477 C 5.8090944,4.1254953 5.7796964,4.1101487 5.7683335,4.0120784 5.7578099,3.9212514 6.1127842,3.1724305 6.7478927,1.9456907 6.815232,1.815622 6.8163763,1.8349322 6.8178571,3.1263282 6.818685,3.8484061 6.8066116,4.4378718 6.7910272,4.4362518 6.7754427,4.4346319 6.5416765,4.3619651 6.2715466,4.27477 Z"
       id="path10" />
    <path
       style="fill:#ff6600;stroke-width:0.0377804"
       d="M 3.1560203,5.9430244 3.1573771,5.2514758 4.1768509,4.6208788 5.1963246,3.9902818 5.1861198,4.7694759 5.175915,5.54867 4.5714286,5.873246 C 4.238961,6.0517629 3.7841795,6.296091 3.5608028,6.4161976 L 3.1546635,6.6345731 Z"
       id="path13" />
    <path
       style="fill:#b3b3b3;stroke-width:0.0377804"
       d="M 6.881242,10.754799 5.7908193,10.503281 5.9607156,10.351994 c 0.093443,-0.08321 0.3309849,-0.299954 0.527871,-0.4816602 L 6.8465615,9.5399593 8.0702701,9.8808558 c 0.6730398,0.1874932 1.2377075,0.3450782 1.2548172,0.3501892 0.04927,0.01472 -1.2251983,0.782319 -1.292741,0.778607 -0.033375,-0.0018 -0.5513718,-0.116519 -1.1511043,-0.254853 z"
       id="path14" />
    <path
       style="fill:#b3b3b3;stroke-width:0.0377804"
       d="M 24.217237,8.6291907 C 23.386068,8.0694808 22.36987,7.3842455 21.959017,7.1064456 L 21.212014,6.6013547 22.110139,6.2664389 c 0.493969,-0.1842037 0.915909,-0.3331325 0.937645,-0.3309529 0.02174,0.00218 0.761287,0.5724933 1.643448,1.2673638 2.42222,1.9079627 2.585435,2.0378877 2.595965,2.0664777 0.01039,0.028214 -1.406444,0.3879816 -1.502073,0.3814111 -0.03117,-0.00214 -0.736718,-0.4618381 -1.567887,-1.0215479 z"
       id="path15" />
    <path
       style="fill:#b3b3b3;stroke-width:0.0377804"
       d="M 25.630232,7.872524 C 24.703483,7.137441 23.746571,6.3829988 23.50376,6.1959858 l -0.441473,-0.3400236 0.0227,-0.6038213 c 0.01248,-0.3321018 0.02941,-0.6105346 0.03762,-0.6187396 0.0162,-0.016199 0.458356,0.3624606 2.738085,2.3448776 l 1.492326,1.2977036 0.01023,0.1878649 c 0.0056,0.1033256 -0.0029,0.313263 -0.01889,0.4665279 l -0.02912,0.2786633 z"
       id="path16" />
    <path
       style="fill:#b3b3b3;stroke-width:0.0377804"
       d="M 21.175915,5.9144054 V 5.2739111 l 0.122786,-0.054352 c 0.06753,-0.029893 0.237767,-0.098713 0.378298,-0.1529326 0.140531,-0.05422 0.327544,-0.1305141 0.415584,-0.1695432 0.08804,-0.039029 0.25358,-0.1087857 0.367866,-0.1550146 0.114285,-0.046229 0.258795,-0.1059649 0.321133,-0.1327468 0.266697,-0.1145797 0.245573,-0.1649303 0.245573,0.5853393 0,0.6635908 -0.0017,0.6784939 -0.08501,0.72427 -0.04675,0.025706 -0.104205,0.05 -0.127671,0.053988 -0.02347,0.00399 -0.394267,0.1365641 -0.824003,0.2946151 -0.429735,0.1580509 -0.788812,0.2873652 -0.797948,0.2873652 -0.0091,0 -0.01661,-0.2882224 -0.01661,-0.6404942 z"
       id="path17" />
    <path
       style="fill:#b3b3b3;stroke-width:0.0377804"
       d=""
       id="path18" />
    <path
       style="fill:#b3b3b3;stroke-width:0.0377804"
       d="m 4.4391972,28.578198 c 0,-0.04327 0.3934443,-2.876177 0.42847,-3.085101 C 4.879166,25.424508 4.666231,25.203466 3.7212326,24.303015 2.7284456,23.357027 2.572412,23.193853 2.6418583,23.174243 c 0.04465,-0.01261 0.7471211,-0.139066 1.5610468,-0.28102 l 1.479865,-0.258097 0.6685438,-1.486927 0.6685439,-1.486928 0.737705,1.448704 0.737705,1.448704 1.5138772,0.182835 c 0.832633,0.10056 1.537311,0.195113 1.565951,0.210118 0.03701,0.01939 -0.265266,0.362041 -1.044947,1.184516 -0.761305,0.803091 -1.0922738,1.177558 -1.0815082,1.223648 0.071617,0.306611 0.5827082,3.054135 0.5741862,3.086706 -0.0061,0.02317 -0.6396347,-0.278136 -1.4079411,-0.669558 C 7.432827,27.17473 7.2052617,27.071054 7.135374,27.102898 c -0.045425,0.0207 -0.6456516,0.362436 -1.333836,0.75942 -0.6881846,0.396984 -1.2762414,0.731381 -1.3067928,0.743105 -0.031114,0.01194 -0.055548,-3.6e-5 -0.055548,-0.02722 z"
       id="path21" />
    <path
       style="fill:#ff6600;stroke-width:0.0377804"
       d="M 6.866588,10.738113 C 6.3211334,10.611738 5.8748524,10.495778 5.8748524,10.480424 c 0,-0.04993 0.9473951,-0.9030922 1.0028387,-0.9030922 0.05728,0 2.3689767,0.6405352 2.3922385,0.6628522 0.018308,0.01757 -0.4235209,0.301209 -0.8433147,0.541389 -0.2178172,0.124622 -0.3793985,0.192329 -0.4533648,0.189973 -0.06321,-0.002 -0.5612076,-0.107058 -1.1066621,-0.233433 z"
       id="path22" />
  </g>
</svg>
